<?xml version="1.0" standalone="no"?>
<!DOCTYPE svg PUBLIC "-//W3C//DTD SVG 20010904//EN"
 "http://www.w3.org/TR/2001/REC-SVG-20010904/DTD/svg10.dtd">
<svg version="1.0" xmlns="http://www.w3.org/2000/svg"
 width="300.000000pt" height="300.000000pt" viewBox="0 0 300.000000 300.000000"
 preserveAspectRatio="xMidYMid meet">
<metadata>
Created by potrace 1.11, written by Peter Selinger 2001-2013
</metadata>
<g transform="translate(0.000000,300.000000) scale(0.100000,-0.100000)"
fill="#000000" stroke="none">
<path d="M540 1610 l0 -630 965 0 965 0 -2 628 -3 627 -962 3 -963 2 0 -630z
m1890 -10 l0 -600 -930 0 -930 0 0 600 0 600 930 0 930 0 0 -600z"/>
<path d="M863 2087 c-58 -16 -125 -84 -141 -142 -24 -91 -12 -203 30 -281 22
-41 99 -104 163 -133 11 -5 39 -27 63 -48 31 -28 44 -48 49 -75 8 -55 -4 -103
-36 -137 -23 -25 -37 -31 -70 -31 -45 0 -110 23 -154 53 -16 10 -29 18 -31 16
-2 -2 -10 -33 -19 -69 -15 -60 -15 -66 1 -80 64 -58 181 -90 262 -70 100 24
158 102 167 225 9 113 -3 178 -41 228 -28 37 -138 124 -159 126 -12 1 -69 44
-89 66 -13 15 -17 38 -18 88 0 63 3 71 29 98 22 21 39 29 66 29 37 0 120 -37
149 -65 18 -18 20 -15 30 45 3 19 8 46 12 60 4 21 -2 29 -43 56 -46 30 -123
55 -160 53 -10 -1 -37 -6 -60 -12z"/>
<path d="M1978 2087 c-55 -14 -138 -77 -166 -127 -65 -113 -92 -289 -73 -461
19 -171 57 -266 136 -345 94 -94 199 -96 292 -6 69 68 93 117 119 247 14 71
19 230 8 259 -5 13 -26 16 -125 16 l-119 0 0 -70 0 -70 70 0 c79 0 76 6 57
-95 -24 -124 -72 -185 -144 -185 -107 0 -167 122 -168 340 0 232 61 350 183
350 39 0 103 -34 129 -69 6 -9 13 -14 16 -11 10 11 57 110 57 120 0 29 -91 94
-152 109 -55 13 -58 13 -120 -2z"/>
<path d="M1220 2005 l0 -75 80 0 80 0 0 -415 0 -415 65 0 65 0 0 415 0 415 80
0 80 0 0 75 0 75 -225 0 -225 0 0 -75z"/>
<path d="M586 904 c-30 -29 -20 -59 29 -84 54 -28 36 -71 -21 -50 -22 9 -25 7
-22 -7 4 -22 72 -30 94 -12 23 19 17 56 -15 78 -16 12 -34 21 -40 21 -6 0 -11
9 -11 21 0 18 5 21 35 17 23 -3 35 0 35 8 0 26 -60 32 -84 8z"/>
<path d="M1240 830 c0 -83 1 -90 20 -90 19 0 20 7 20 90 0 83 -1 90 -20 90
-19 0 -20 -7 -20 -90z"/>
<path d="M1360 906 c0 -8 10 -16 23 -18 20 -3 22 -9 25 -75 2 -56 6 -73 17
-73 12 0 15 16 15 75 0 60 3 75 15 75 8 0 15 7 15 15 0 12 -13 15 -55 15 -41
0 -55 -4 -55 -14z"/>
<path d="M1903 910 c-25 -10 -43 -64 -36 -106 8 -44 31 -64 72 -64 30 0 40 5
54 29 27 46 23 71 -13 71 -35 0 -40 -15 -8 -23 21 -6 21 -7 3 -27 -34 -38 -85
-15 -85 39 0 40 31 65 69 56 24 -5 31 -3 31 8 0 23 -48 33 -87 17z"/>
<path d="M2300 876 c0 -40 -2 -43 -23 -39 -31 6 -49 -18 -45 -59 3 -32 5 -33
51 -36 l47 -3 0 90 c0 74 -3 91 -15 91 -11 0 -15 -12 -15 -44z m-2 -89 c3 -22
-1 -27 -18 -27 -23 0 -35 22 -26 46 10 25 41 12 44 -19z"/>
<path d="M1070 890 c0 -11 5 -20 10 -20 6 0 10 9 10 20 0 11 -4 20 -10 20 -5
0 -10 -9 -10 -20z"/>
<path d="M2170 890 c0 -11 5 -20 10 -20 6 0 10 9 10 20 0 11 -4 20 -10 20 -5
0 -10 -9 -10 -20z"/>
<path d="M1718 858 c-2 -30 1 -68 7 -95 4 -17 12 -23 33 -23 25 1 25 2 10 14
-21 15 -24 62 -5 70 10 5 10 7 0 12 -7 3 -13 14 -13 25 0 27 -30 24 -32 -3z"/>
<path d="M710 763 c0 -58 3 -73 15 -73 9 0 15 9 15 25 0 21 5 25 29 25 30 0
41 14 41 55 0 31 -18 43 -62 42 l-38 -1 0 -73z m75 27 c0 -18 -6 -26 -22 -28
-18 -3 -23 1 -23 21 0 28 9 39 30 35 9 -2 15 -14 15 -28z"/>
<path d="M856 824 c-17 -17 -19 -27 -10 -61 5 -18 14 -23 40 -23 19 0 34 5 34
10 0 6 -11 10 -25 10 -14 0 -25 5 -25 10 0 6 14 10 30 10 22 0 30 5 30 18 0
39 -45 55 -74 26z m54 -19 c0 -8 -9 -15 -20 -15 -11 0 -20 7 -20 15 0 8 9 15
20 15 11 0 20 -7 20 -15z"/>
<path d="M976 824 c-17 -17 -19 -27 -10 -61 5 -17 14 -23 35 -23 15 0 31 5 34
10 3 6 -5 10 -18 10 -26 0 -40 20 -31 45 4 8 15 15 25 15 10 0 19 5 19 10 0
16 -37 12 -54 -6z"/>
<path d="M1070 790 c0 -27 5 -50 10 -50 6 0 10 23 10 50 0 28 -4 50 -10 50 -5
0 -10 -22 -10 -50z"/>
<path d="M1137 833 c-14 -13 -6 -20 17 -16 13 3 27 0 30 -6 5 -7 -4 -14 -23
-17 -29 -6 -46 -27 -35 -45 3 -5 23 -9 45 -9 38 0 39 1 39 34 0 51 -9 66 -39
66 -15 0 -31 -3 -34 -7z m53 -57 c0 -16 -27 -29 -42 -20 -7 5 -4 12 7 21 24
17 35 17 35 -1z"/>
<path d="M1494 815 c-14 -22 -15 -30 -4 -50 10 -19 22 -25 47 -25 20 0 32 4
28 10 -3 6 -17 10 -31 10 -13 0 -24 5 -24 10 0 6 16 10 35 10 37 0 44 13 21
43 -19 25 -53 21 -72 -8z m60 -10 c4 -11 -1 -15 -19 -15 -16 0 -25 6 -25 15 0
8 9 15 19 15 10 0 21 -7 25 -15z"/>
<path d="M1612 828 c-19 -19 -14 -28 26 -46 l37 -17 -37 -3 c-50 -4 -49 -22 1
-22 26 0 41 5 45 16 9 22 1 30 -34 38 -36 7 -31 26 6 26 13 0 24 5 24 10 0 14
-54 12 -68 -2z"/>
<path d="M2040 806 c0 -56 8 -66 51 -66 l39 0 0 50 c0 28 -4 50 -10 50 -5 0
-10 -18 -10 -40 0 -33 -3 -40 -20 -40 -17 0 -20 7 -20 40 0 29 -4 40 -15 40
-10 0 -15 -10 -15 -34z"/>
<path d="M2170 790 c0 -27 5 -50 10 -50 6 0 10 23 10 50 0 28 -4 50 -10 50 -5
0 -10 -22 -10 -50z"/>
<path d="M2370 815 c-20 -37 0 -75 40 -75 16 0 30 5 30 10 0 6 -11 10 -24 10
-14 0 -28 5 -31 10 -4 6 8 10 29 10 28 0 36 4 36 18 0 45 -58 57 -80 17z m60
-10 c0 -9 -9 -15 -25 -15 -18 0 -23 4 -19 15 4 8 15 15 25 15 10 0 19 -7 19
-15z"/>
</g>
</svg>
